<svg width="80" height="32" viewBox="0 0 80 32" fill="none" xmlns="http://www.w3.org/2000/svg">
<g clip-path="url(#clip0_1540_6527)">
<path d="M10.3626 6.99707C4.73894 6.99707 0.0527344 9.38291 0.0527344 16.5809C0.0527344 22.2833 3.20387 25.8743 10.5078 25.8743C19.1049 25.8743 19.656 20.2111 19.656 20.2111H15.4903C15.4903 20.2111 14.5972 23.2605 10.2537 23.2605C6.71607 23.2605 4.17167 20.8708 4.17167 17.5211H20.0916V15.4192C20.0916 12.1054 17.988 6.99707 10.3626 6.99707ZM10.2174 9.68345C13.5849 9.68345 15.8806 11.7464 15.8806 14.8384H4.26381C4.26381 11.5559 7.2603 9.68345 10.2174 9.68345Z" fill="white"/>
<path d="M20.0891 0.0263672V22.2589C20.0891 23.5208 19.999 25.2928 19.999 25.2928H23.9722C23.9722 25.2928 24.1148 24.0202 24.1148 22.8571C24.1148 22.8571 26.0778 25.9281 31.4154 25.9281C37.0361 25.9281 40.854 22.0258 40.854 16.435C40.854 11.234 37.3472 7.05088 31.4245 7.05088C25.8784 7.05088 24.155 10.0458 24.155 10.0458V0.0263672H20.0891ZM30.399 9.80078C34.2159 9.80078 36.643 12.6336 36.643 16.435C36.643 20.5114 33.8397 23.1782 30.4262 23.1782C26.3524 23.1782 24.155 19.9974 24.155 16.4713C24.155 13.1857 26.1268 9.80078 30.399 9.80078Z" fill="white"/>
<path d="M50.7283 6.99707C42.2679 6.99707 41.7253 11.6296 41.7253 12.3698H45.9364C45.9364 12.3698 46.1572 9.66529 50.4379 9.66529C53.2196 9.66529 55.375 10.9385 55.375 13.3863V14.2575H50.4379C43.8835 14.2575 40.4185 16.175 40.4185 20.0659C40.4185 23.8952 43.6201 25.9787 47.9467 25.9787C53.8431 25.9787 55.7426 22.7205 55.7426 22.7205C55.7426 24.0164 55.8425 25.2935 55.8425 25.2935H59.5861C59.5861 25.2935 59.4409 23.7106 59.4409 22.6978V13.9444C59.4409 8.20495 54.8114 6.99707 50.7283 6.99707ZM55.375 16.8713V18.033C55.375 19.5481 54.4401 23.315 48.9359 23.315C45.9218 23.315 44.6295 21.8107 44.6295 20.0659C44.6295 16.8918 48.9815 16.8713 55.375 16.8713Z" fill="white"/>
<path d="M57.1729 7.72363H61.9103L68.7092 21.3448L75.4926 7.72363H79.784L67.4283 31.9736H62.9268L66.4922 25.2136L57.1729 7.72363Z" fill="white"/>
</g>
<defs>
<clipPath id="clip0_1540_6527">
<rect width="79.7845" height="32" fill="white" transform="translate(0.0263672)"/>
</clipPath>
</defs>
</svg>
