<svg width="106" height="32" viewBox="0 0 106 32" fill="none" xmlns="http://www.w3.org/2000/svg">
<g clip-path="url(#clip0_1540_6533)">
<path d="M32.0445 14.4265H22.3906L30.7509 9.64936L29.093 6.80603L20.7316 11.5832L25.5576 3.3094L22.6852 1.66823L17.8582 9.93992V0.387695H14.5403V9.94101L9.71329 1.66823L6.83995 3.3094L11.6659 11.5811L3.30658 6.80603L1.6476 9.64936L10.0079 14.4265H0.354004V17.7099H10.0069L1.6476 22.4871L3.30552 25.3304L11.667 20.5532L6.83995 28.827L9.71227 30.4682L14.5403 22.1954V31.7477H17.8582V21.9905L22.774 30.416L25.4678 28.8772L20.551 20.4497L29.0909 25.3294L30.7499 22.486L22.3906 17.7089H32.0435V14.4265H32.0445ZM16.1992 20.5313C15.607 20.5313 15.0205 20.416 14.4733 20.1916C13.926 19.9673 13.4288 19.6385 13.0099 19.224C12.5911 18.8094 12.2588 18.3173 12.0321 17.7757C11.8054 17.234 11.6886 16.6535 11.6886 16.0672C11.6885 15.4809 11.8051 14.9003 12.0317 14.3586C12.2582 13.8169 12.5904 13.3247 13.0092 12.91C13.428 12.4954 13.9251 12.1665 14.4723 11.9421C15.0195 11.7177 15.606 11.6021 16.1982 11.602C17.3944 11.6019 18.5416 12.0721 19.3875 12.9093C20.2335 13.7465 20.7088 14.8821 20.7089 16.0661C20.7091 17.2502 20.234 18.3859 19.3883 19.2232C18.5426 20.0606 17.3955 20.5312 16.1992 20.5313Z" fill="white"/>
<path d="M40.5972 27.5386V4.59766H44.8507V27.5386H40.5972ZM81.3934 11.9484H85.4548V13.8509C86.3188 12.33 88.3348 11.5052 90.0615 11.5052C92.2049 11.5052 93.9316 12.4251 94.731 14.1029C95.977 12.2004 97.641 11.5052 99.7204 11.5052C102.63 11.5052 105.413 13.2478 105.413 17.4301V27.5386H101.288V18.2863C101.288 16.6065 100.455 15.3384 98.5037 15.3384C96.6804 15.3384 95.5924 16.734 95.5924 18.4138V27.5396H91.3729V18.2863C91.3729 16.6065 90.5089 15.3384 88.5889 15.3384C86.7335 15.3384 85.6462 16.7026 85.6462 18.4138V27.5396H81.3934V11.9484ZM54.4635 27.9902C49.6713 27.9902 46.2013 24.4705 46.2013 19.7435C46.2013 15.0918 49.6608 11.4895 54.4635 11.4895C59.2894 11.4895 62.7256 15.1252 62.7256 19.7435C62.7256 24.4371 59.2535 27.9902 54.4635 27.9902ZM54.4635 15.305C53.2748 15.3067 52.1354 15.775 51.2952 16.6074C50.4549 17.4396 49.9826 18.5679 49.9818 19.7445C49.9826 20.9212 50.4549 22.0494 51.2952 22.8817C52.1354 23.7141 53.2748 24.1824 54.4635 24.1841C55.6519 24.1822 56.7911 23.7137 57.6311 22.8814C58.471 22.0491 58.9432 20.921 58.9441 19.7445C58.9432 18.5681 58.471 17.44 57.6311 16.6077C56.7911 15.7754 55.6519 15.3069 54.4635 15.305ZM71.8106 27.9902C67.0183 27.9902 63.5483 24.4705 63.5483 19.7435C63.5483 15.0918 67.0075 11.4895 71.8106 11.4895C76.6362 11.4895 80.0724 15.1252 80.0724 19.7435C80.0724 24.4371 76.5985 27.9902 71.8106 27.9902ZM71.8106 15.2517C70.6081 15.2536 69.4555 15.7275 68.6055 16.5693C67.7563 17.4112 67.2782 18.5523 67.2769 19.7425C67.2782 20.9326 67.7563 22.0737 68.6055 22.9156C69.4555 23.7574 70.6081 24.2312 71.8106 24.2332C73.0126 24.2312 74.1652 23.7574 75.0151 22.9156C75.865 22.0737 76.3425 20.9326 76.3438 19.7425C76.3425 18.5523 75.865 17.4112 75.0151 16.5693C74.1652 15.7275 73.0126 15.2536 71.8106 15.2517Z" fill="white"/>
</g>
<defs>
<clipPath id="clip0_1540_6533">
<rect width="105.6" height="32" fill="white" transform="translate(0.354004)"/>
</clipPath>
</defs>
</svg>
