<svg width="96" height="32" viewBox="0 0 96 32" fill="none" xmlns="http://www.w3.org/2000/svg">
<g clip-path="url(#clip0_1540_6502)">
<path d="M12.4075 8.0293C5.80322 8.0293 0.458008 13.3745 0.458008 19.9788C0.458008 26.5831 5.80322 31.9283 12.4075 31.9283C19.0118 31.9283 24.357 26.5831 24.357 19.9788C24.357 13.3745 19.0118 8.0293 12.4075 8.0293ZM12.4075 25.9655C9.10537 25.9655 6.42089 23.281 6.42089 19.9788C6.42089 16.6767 9.10537 13.9922 12.4075 13.9922C15.7097 13.9922 18.3942 16.6767 18.3942 19.9788C18.3942 23.281 15.7097 25.9655 12.4075 25.9655Z" fill="white"/>
<path d="M33.4083 23.9941C33.4083 23.0438 34.5486 22.5924 35.2138 23.2576C38.2071 26.2984 43.1485 31.5249 43.1722 31.5486C43.2435 31.6199 43.3148 31.7387 43.5999 31.8337C43.7186 31.8812 43.9087 31.8812 44.1225 31.8812H49.5152C50.4892 31.8812 50.7743 30.7647 50.3229 30.1945L41.3905 21.0483L40.9154 20.5731C39.8938 19.3615 40.0126 18.8864 41.1767 17.6511L48.2561 9.74016C48.7075 9.17001 48.4224 8.07721 47.4247 8.07721H42.5308C42.3408 8.07721 42.1982 8.07721 42.0557 8.12472C41.7706 8.21975 41.6518 8.31477 41.5806 8.4098C41.5568 8.43356 37.637 12.6622 35.2138 15.2517C34.5486 15.9644 33.3608 15.4892 33.3608 14.5152V0.95026C33.3608 0.261321 32.7907 0 32.3393 0H28.3482C27.6593 0 27.3267 0.451373 27.3267 0.855234V30.931C27.3267 31.6199 27.8968 31.8099 28.3719 31.8099H32.363C32.9807 31.8099 33.3846 31.3586 33.3846 30.9072V30.5984V23.9941H33.4083Z" fill="white"/>
<path d="M66.0022 30.7884L65.5746 26.7973C65.5271 26.2509 65.0045 25.8708 64.4581 25.9659C64.1492 26.0134 63.8404 26.0371 63.5315 26.0371C60.3482 26.0371 57.7587 23.5427 57.5687 20.3831C57.5687 20.288 57.5687 20.1693 57.5687 20.0505V15.1566C57.5687 14.5152 58.0438 13.9926 58.6852 13.9926H64.0304C64.4105 13.9926 64.9807 13.66 64.9807 12.971V9.19376C64.9807 8.45731 64.5056 8.07721 64.0779 8.07721H58.6852C58.0676 8.07721 57.5687 7.62584 57.5449 7.00817V0.95026C57.5449 0.570156 57.2598 0 56.5234 0H52.556C52.0572 0 51.582 0.308834 51.582 0.926503C51.582 0.926503 51.582 20.288 51.582 20.3831C51.7483 26.8448 57.046 32 63.5315 32C64.0779 32 64.6006 31.9525 65.1232 31.8812C65.6934 31.8099 66.0735 31.3348 66.0022 30.7884Z" fill="white"/>
<path d="M94.7949 25.7757C91.4215 25.7757 90.8989 24.5641 90.8989 20.0266C90.8989 20.0029 90.8989 20.0029 90.8989 19.9791V9.0749C90.8989 8.6948 90.6138 8.05337 89.8536 8.05337H85.8625C85.3636 8.05337 84.8172 8.45723 84.8172 9.0749V9.57379C83.083 8.57601 81.0637 8.00586 78.9256 8.00586C72.3213 8.00586 66.9761 13.3511 66.9761 19.9554C66.9761 26.5597 72.3213 31.9049 78.9256 31.9049C81.8952 31.9049 84.6034 30.8121 86.694 29.0304C87.8105 30.7408 89.616 31.8811 92.443 31.9049C92.9182 31.9049 95.4839 31.9999 95.4839 30.7883V26.5359C95.4839 26.1796 95.1988 25.7757 94.7949 25.7757ZM78.9493 25.9658C75.6472 25.9658 72.9627 23.2813 72.9627 19.9791C72.9627 16.677 75.6472 13.9925 78.9493 13.9925C82.2515 13.9925 84.936 16.677 84.936 19.9791C84.9122 23.2813 82.2277 25.9658 78.9493 25.9658Z" fill="white"/>
</g>
<defs>
<clipPath id="clip0_1540_6502">
<rect width="95.026" height="32" fill="white" transform="translate(0.458008)"/>
</clipPath>
</defs>
</svg>
