<svg width="177" height="22" viewBox="0 0 177 22" fill="none" xmlns="http://www.w3.org/2000/svg">
<g clip-path="url(#clip0_1540_6552)">
<path fill-rule="evenodd" clip-rule="evenodd" d="M18.5327 0C13.7033 0 10.6858 2.40013 9.47789 7.20039C11.289 4.80026 13.4017 3.90039 15.816 4.50006C17.1935 4.84213 18.1785 5.83568 19.2679 6.93568C21.0435 8.7269 23.0987 10.7999 27.5867 10.7999C32.4154 10.7999 35.4336 8.39974 36.6408 3.60019C34.8304 6.00032 32.7177 6.90019 30.3034 6.29981C28.9252 5.95774 27.9401 4.96419 26.8508 3.8649C25.0752 2.07226 23.0207 0 18.5327 0ZM9.47789 10.7999C4.64925 10.7999 1.63099 13.2 0.423828 18.0003C2.23492 15.6001 4.34763 14.7003 6.76125 15.2999C8.13944 15.642 9.12447 16.6355 10.2138 17.7355C11.9894 19.5268 14.044 21.5997 18.5327 21.5997C23.3613 21.5997 26.3796 19.2003 27.5867 14.4001C25.7756 16.8002 23.6629 17.7001 21.2486 17.1004C19.8711 16.7576 18.8861 15.7641 17.7967 14.6648C16.0211 12.8735 13.9659 10.7999 9.47789 10.7999Z" fill="white"/>
<path fill-rule="evenodd" clip-rule="evenodd" d="M54.7466 9.10157H51.5864V15.1814C51.5864 16.803 52.6566 16.7774 54.7466 16.676V19.1336C50.5155 19.6403 48.8335 18.475 48.8335 15.1814V9.10157H46.4888V6.46654H48.8335V3.06435L51.5864 2.25319V6.46654H54.7466V9.10157ZM66.7926 6.46654H69.5448V19.1336H66.7926V17.3097C65.8239 18.6517 64.3201 19.4629 62.3323 19.4629C58.8663 19.4629 55.9864 16.5496 55.9864 12.7997C55.9864 9.02564 58.8663 6.13725 62.3323 6.13725C64.3201 6.13725 65.8239 6.9477 66.7926 8.26558V6.46654ZM62.7659 16.8534C65.0596 16.8534 66.7926 15.1558 66.7926 12.7997C66.7926 10.4436 65.0596 8.74674 62.7659 8.74674C60.4723 8.74674 58.7392 10.4443 58.7392 12.7997C58.7392 15.1558 60.4723 16.8534 62.7659 16.8534ZM74.1321 4.56674C73.1641 4.56674 72.3743 3.75628 72.3743 2.8188C72.3765 2.35419 72.5627 1.9094 72.8922 1.5818C73.2217 1.2542 73.6675 1.07048 74.1321 1.07087C74.5969 1.0703 75.0429 1.25393 75.3725 1.58155C75.7021 1.90917 75.8884 2.35407 75.8907 2.8188C75.8907 3.75558 75.1008 4.56674 74.1321 4.56674ZM72.7561 19.1336V6.46654H75.5089V19.1336H72.7561ZM78.6946 19.1336V0.638672H81.4468V19.1329H78.6946V19.1336ZM99.3129 6.46654H102.218L98.2172 19.1336H95.5154L92.8648 10.5962L90.1886 19.1336H87.4875L83.4857 6.46654H86.3911L88.8636 15.2062L91.5398 6.46654H94.1649L96.8148 15.2062L99.3129 6.46654ZM105.633 4.56674C104.665 4.56674 103.875 3.75628 103.875 2.8188C103.877 2.35407 104.063 1.90917 104.393 1.58155C104.723 1.25393 105.169 1.0703 105.633 1.07087C106.098 1.0703 106.544 1.25393 106.874 1.58155C107.203 1.90917 107.39 2.35407 107.392 2.8188C107.392 3.75558 106.602 4.56674 105.633 4.56674ZM104.257 19.1336V6.46654H107.009V19.1336H104.257ZM116.898 6.13725C119.752 6.13725 121.791 8.06261 121.791 11.3562V19.1329H119.039V11.6344C119.039 9.70906 117.918 8.69635 116.185 8.69635C114.375 8.69635 112.948 9.76015 112.948 12.3441V19.1336H110.195V6.46654H112.948V8.08816C113.789 6.77099 115.165 6.13725 116.898 6.13725ZM134.84 1.40016H137.593V19.1329H134.84V17.309C133.872 18.6517 132.368 19.4622 130.38 19.4622C126.914 19.4622 124.035 16.5489 124.035 12.799C124.035 9.02493 126.914 6.13654 130.38 6.13654C132.368 6.13654 133.872 6.94699 134.84 8.26487V1.40016ZM130.813 16.8534C133.107 16.8534 134.84 15.1558 134.84 12.7997C134.84 10.4436 133.107 8.74674 130.813 8.74674C128.52 8.74674 126.787 10.4443 126.787 12.7997C126.787 15.1558 128.52 16.8534 130.813 16.8534ZM146.819 19.4629C142.97 19.4629 140.09 16.5496 140.09 12.7997C140.09 9.02564 142.97 6.13725 146.819 6.13725C149.316 6.13725 151.483 7.42887 152.502 9.40532L150.131 10.7736C149.571 9.58274 148.323 8.82267 146.793 8.82267C144.551 8.82267 142.843 10.5202 142.843 12.7997C142.843 15.0799 144.551 16.7774 146.793 16.7774C148.323 16.7774 149.571 15.9918 150.183 14.8265L152.553 16.1693C151.483 18.1705 149.316 19.4622 146.819 19.4622V19.4629ZM157.089 9.96241C157.089 12.2682 163.945 10.8743 163.945 15.5618C163.945 18.0953 161.728 19.4629 158.975 19.4629C156.427 19.4629 154.592 18.3224 153.776 16.4985L156.147 15.131C156.554 16.2707 157.574 16.9549 158.975 16.9549C160.199 16.9549 161.141 16.5496 161.141 15.5355C161.141 13.2816 154.286 14.5483 154.286 10.0135C154.286 7.63183 156.35 6.13725 158.95 6.13725C161.04 6.13725 162.773 7.10029 163.665 8.77228L161.346 10.0639C160.887 9.07603 159.995 8.6197 158.95 8.6197C157.956 8.6197 157.089 9.05048 157.089 9.96241ZM168.839 9.96241C168.839 12.2682 175.694 10.8743 175.694 15.5618C175.694 18.0953 173.477 19.4629 170.724 19.4629C168.176 19.4629 166.341 18.3224 165.525 16.4985L167.895 15.131C168.303 16.2707 169.323 16.9549 170.724 16.9549C171.948 16.9549 172.891 16.5496 172.891 15.5355C172.891 13.2816 166.035 14.5483 166.035 10.0135C166.035 7.63183 168.099 6.13725 170.699 6.13725C172.789 6.13725 174.522 7.10029 175.414 8.77228L173.095 10.0639C172.636 9.07603 171.744 8.6197 170.699 8.6197C169.705 8.6197 168.839 9.05048 168.839 9.96241Z" fill="white"/>
</g>
<defs>
<clipPath id="clip0_1540_6552">
<rect width="176" height="22" fill="white" transform="translate(0.423828)"/>
</clipPath>
</defs>
</svg>
