<svg width="83" height="48" viewBox="0 0 83 48" fill="none" xmlns="http://www.w3.org/2000/svg">
<g clip-path="url(#clip0_1540_6511)">
<path d="M60.4159 18.0162C67.0151 15.113 71.3241 10.7532 71.5589 5.91658C71.5589 5.91658 69.8168 4.57443 64.1916 2.50468C59.2521 0.68713 55.4836 0.271152 55.4836 0.271152L55.501 11.0475C55.501 12.6578 54.8546 14.3014 53.6342 15.7566C49.9005 14.855 45.7741 14.3492 41.4461 14.3478H41.4432C37.1124 14.3492 32.9816 14.8565 29.2436 15.7595C28.0232 14.3043 27.3753 12.6592 27.3753 11.0475L27.3913 0.271152C27.3913 0.271152 23.6257 0.68713 18.6833 2.50468C13.0581 4.57443 11.3188 5.91658 11.3188 5.91658C11.5522 10.7547 15.8627 15.1159 22.4691 18.0191C15.8685 20.9223 11.5595 25.2821 11.3261 30.1173C11.3261 30.1173 13.0668 31.4609 18.692 33.5292C23.633 35.3467 27.4 35.7627 27.4 35.7627L27.3826 24.9864C27.3826 23.3761 28.029 21.731 29.2509 20.2773C32.9845 21.1802 37.1095 21.6846 41.4374 21.6846H41.4389C45.7712 21.6846 49.9034 21.1788 53.64 20.2729C54.8604 21.7281 55.5068 23.3761 55.5068 24.9864L55.4923 35.7627C55.4923 35.7627 59.2593 35.3467 64.2003 33.5292C69.8255 31.4609 71.5662 30.1173 71.5662 30.1173C71.3314 25.2792 67.0209 20.9179 60.4159 18.0162ZM41.4403 20.4411H41.436L41.3128 20.4382C37.4052 20.4382 34.2194 19.4815 31.883 18.0191C34.2194 16.5537 37.4067 15.5957 41.3215 15.5957L41.4418 15.5942H41.4476L41.5708 15.5957C45.4798 15.5957 48.6642 16.5523 51.0006 18.0147C48.6642 19.4786 45.4769 20.4382 41.5635 20.4382" fill="white"/>
<path d="M2.68121 47.7021C0.788286 47.7021 0.75495 46.2585 0.75495 45.702V43.0757C0.75495 42.9162 0.741905 42.7046 1.07962 42.7046H2.05796C2.37538 42.7046 2.35509 42.9307 2.35509 43.0757V45.702C2.35509 45.8889 2.38988 46.3904 3.07834 46.3904H4.71907C5.39449 46.3904 5.43362 45.8889 5.43362 45.702V43.0757C5.43362 42.9307 5.41478 42.7046 5.73075 42.7046H6.71635C7.07435 42.7046 7.04246 42.9307 7.04246 43.0757V45.702C7.04246 46.2585 7.00913 47.7021 5.10896 47.7021" fill="white"/>
<path d="M11.7469 47.3853C11.0787 46.4852 10.125 45.3517 9.15243 44.1545V47.3519C9.15243 47.4911 9.18722 47.7027 8.8553 47.7027H7.94218C7.61172 47.7027 7.65085 47.4911 7.65085 47.3519V43.0762C7.65085 42.9312 7.63635 42.7051 7.94218 42.7051H9.72205C10.225 42.7051 10.941 43.7183 11.4106 44.3864C11.773 44.8966 12.4426 45.6634 12.8919 46.2388V43.0762C12.8919 42.9312 12.8716 42.7051 13.2035 42.7051H14.1949C14.5138 42.7051 14.4935 42.9312 14.4935 43.0762V47.7027H12.6672C12.2759 47.7027 12.1034 47.7288 11.7469 47.3853Z" fill="white"/>
<path d="M19.2709 46.388C20.071 46.388 20.013 45.6199 20.013 45.2691C20.013 44.0907 19.6811 44.0444 19.1521 44.0444H16.6374V46.388H19.2709ZM15.0938 47.7041V42.7138H19.5043C19.7739 42.7138 21.5798 42.6819 21.5798 44.5792C21.5798 46.5199 21.7914 47.7041 19.5434 47.7041H17.1664L16.6504 46.6591V47.7041" fill="white"/>
<path d="M23.3074 42.7459H27.37C27.715 42.7459 27.6686 42.9706 27.6686 43.388C27.6686 43.7765 27.7208 43.9953 27.37 43.9953H24.1596C24.0741 43.9953 23.7842 43.9489 23.7842 44.2533C23.7842 44.5577 23.7248 44.678 24.048 44.678H26.8874C26.8874 44.678 27.2976 45.4592 27.3439 45.5911C27.4106 45.71 27.4034 45.823 27.1526 45.823H24.2132L23.7567 44.936V46.2462C23.7567 46.5506 24.0292 46.4912 24.1074 46.4912H27.4425C27.7744 46.4912 27.7469 46.7217 27.7469 47.0985C27.7469 47.5043 27.7744 47.7275 27.4425 47.7275H23.2204C22.8696 47.7275 22.1826 47.6217 22.1826 46.5245V43.7707C22.1826 43.4866 22.3348 42.7459 23.3074 42.7459Z" fill="white"/>
<path d="M32.3051 44.0301H30.3266C29.9976 44.0301 30.0092 44.1432 30.0092 44.2432V45.136H32.0471C33.0341 45.136 33.0341 44.8896 33.0341 44.6316C33.0341 44.1156 32.995 44.0301 32.3051 44.0301ZM28.7656 42.7126H33.2124C33.8081 42.7126 34.6734 42.7068 34.6734 44.3142C34.6734 45.3665 34.4502 45.4187 33.9733 45.7433C34.7749 45.8825 34.6691 46.9072 34.6691 47.4377C34.6691 47.7087 34.5705 47.7029 34.4893 47.7029H33.1863C32.9138 47.7029 32.9805 47.2724 32.9805 47.0478C32.9805 46.4318 32.637 46.4593 32.5036 46.4593H30.5846C30.4006 46.1405 30.0426 45.4259 30.0426 45.4259V47.4971C30.0426 47.6768 29.8628 47.7029 29.7976 47.7029H28.4888C28.5598 47.7029 28.354 47.716 28.354 47.5362V43.1431C28.354 42.8315 28.5729 42.7126 28.7656 42.7126Z" fill="white"/>
<path d="M41.8007 44.1272L40.9804 45.623L41.0528 45.6955H42.5819L42.6617 45.623C42.608 45.51 41.9471 44.2533 41.8804 44.12L41.8007 44.1272ZM42.3297 42.7459C42.6544 42.7459 42.9704 42.8909 43.3153 43.5591C43.5487 44.0345 45.1633 46.9521 45.4996 47.5623V47.7275H43.8183L43.3342 46.8535H41.2905C41.2905 46.8535 40.947 46.0665 40.8485 45.8491C40.7224 46.0535 40.0469 47.3376 39.8136 47.7275H38.1279V47.6217C38.4714 46.9738 40.8209 42.7459 40.8209 42.7459" fill="white"/>
<path d="M49.9091 44.0301H47.9307C47.6002 44.0301 47.6132 44.1432 47.6132 44.2432V45.136H49.6511C50.6381 45.136 50.6381 44.8896 50.6381 44.6316C50.6381 44.1156 50.599 44.0301 49.9091 44.0301ZM46.3697 42.7126H50.8164C51.4121 42.7126 52.2789 42.7068 52.2789 44.3142C52.2789 45.3665 52.0557 45.4187 51.5774 45.7433C52.3774 45.8825 52.2716 46.9072 52.2716 47.4377C52.2716 47.7087 52.1731 47.7029 52.0933 47.7029H50.7903C50.5178 47.7029 50.5845 47.2724 50.5845 47.0478C50.5845 46.4318 50.241 46.4593 50.1077 46.4593H48.1887C48.0031 46.1405 47.6451 45.4259 47.6451 45.4259V47.4971C47.6451 47.6768 47.4683 47.7029 47.4016 47.7029H46.0914C46.1638 47.7029 45.9595 47.716 45.9595 47.5362V43.1431C45.9595 42.8315 46.1783 42.7126 46.3697 42.7126Z" fill="white"/>
<path d="M56.1641 47.7021C55.8322 47.0804 54.9119 45.3657 54.2901 44.2424V47.3514C54.2901 47.4905 54.3089 47.7021 53.9944 47.7021H53.0929C52.7551 47.7021 52.7812 47.4905 52.7812 47.3514V43.0757C52.7812 42.9307 52.7624 42.7119 53.0929 42.7119H54.6481C54.88 42.7119 55.209 42.6582 55.5815 43.4003C55.8598 43.9946 56.4497 45.228 56.8526 45.8817C57.2686 45.228 57.8715 43.9946 58.1498 43.4003C58.5136 42.6582 58.8368 42.7119 59.0948 42.7119H60.6428C60.9617 42.7119 60.9283 42.9307 60.9283 43.0757V47.3514C60.9283 47.4905 60.9733 47.7021 60.6428 47.7021H59.7369C59.4065 47.7021 59.4325 47.4905 59.4325 47.3514V44.2424C58.805 45.3657 57.8904 47.0804 57.5454 47.7021" fill="white"/>
<path d="M65.8906 46.4307C66.6399 46.4307 66.6124 45.6581 66.6124 45.1407C66.6124 44.6769 66.7182 43.9493 65.7456 43.9493H64.0962C63.1309 43.9493 63.2439 44.6769 63.2439 45.1407C63.2439 45.6581 63.1976 46.4307 63.9455 46.4307H65.8906ZM62.9265 47.7148C61.451 47.7148 61.5163 46.1321 61.5163 45.1088C61.5163 44.1682 61.4104 42.6999 63.257 42.6854H66.5341C68.3864 42.6854 68.2661 44.174 68.2661 45.1088C68.2661 46.1321 68.34 47.7148 66.8428 47.7148" fill="white"/>
<path d="M70.733 47.7021C68.8386 47.7021 68.8067 46.2585 68.8067 45.702V43.0757C68.8067 42.9162 68.7937 42.7046 69.1314 42.7046H70.1112C70.4271 42.7046 70.4083 42.9307 70.4083 43.0757V45.702C70.4083 45.8889 70.4416 46.3904 71.1301 46.3904H72.7708C73.4462 46.3904 73.4854 45.8889 73.4854 45.702V43.0757C73.4854 42.9307 73.4651 42.7046 73.7825 42.7046H74.7681C75.1261 42.7046 75.0942 42.9307 75.0942 43.0757V45.702C75.0942 46.2585 75.0609 47.7021 73.1607 47.7021" fill="white"/>
<path d="M79.6845 44.0301H77.7061C77.3756 44.0301 77.3886 44.1432 77.3886 44.2432V45.136H79.4265C80.4135 45.136 80.4135 44.8896 80.4135 44.6316C80.4135 44.1156 80.3744 44.0301 79.6845 44.0301ZM76.1436 42.7126H80.5918C81.1875 42.7126 82.0557 42.7068 82.0557 44.3142C82.0557 45.3665 81.8296 45.4187 81.3528 45.7433C82.1543 45.8825 82.0485 46.9072 82.0485 47.4377C82.0485 47.7087 81.9499 47.7029 81.8687 47.7029H80.5657C80.2947 47.7029 80.3599 47.2724 80.3599 47.0478C80.3599 46.4318 80.0164 46.4593 79.8845 46.4593H77.964C77.78 46.1405 77.422 45.4259 77.422 45.4259V47.4971C77.422 47.6768 77.2422 47.7029 77.177 47.7029H75.8682C75.9392 47.7029 75.7349 47.716 75.7349 47.5362V43.1431C75.7349 42.8315 75.9537 42.7126 76.1436 42.7126Z" fill="white"/>
</g>
<defs>
<clipPath id="clip0_1540_6511">
<rect width="81.8428" height="48" fill="white" transform="translate(0.483887)"/>
</clipPath>
</defs>
</svg>
