<svg xmlns="http://www.w3.org/2000/svg" fill="none" viewBox="0 0 172 79"><path fill="#000" d="M103.211 34.356h-4.287a8.285 8.285 0 01-.197-1.223 14.07 14.07 0 010-2.712c.043-.462.109-.87.197-1.223h10.685v33.93c-.535.092-1.074.158-1.616.197-.538.04-1.077.063-1.617.065a21.598 21.598 0 01-1.549-.066 15.906 15.906 0 01-1.615-.198V34.355l-.001.001zm37.196 8.533c0-1.235-.165-2.414-.494-3.54-.33-1.123-.815-2.104-1.451-2.942a7.088 7.088 0 00-2.441-2.017c-.989-.507-2.165-.76-3.528-.76-2.682 0-4.738.816-6.167 2.447-1.429 1.63-2.296 3.901-2.605 6.812h16.686zm-16.751 4.894c.088 3.704 1.044 6.416 2.869 8.134 1.823 1.72 4.517 2.58 8.078 2.58 3.121 0 6.089-.551 8.903-1.653.351.661.637 1.466.857 2.414.216.923.348 1.864.395 2.81-1.45.62-3.045 1.08-4.78 1.39-1.738.307-3.661.463-5.771.463-3.078 0-5.717-.432-7.914-1.29-2.199-.861-4.012-2.074-5.441-3.638-1.429-1.565-2.474-3.417-3.133-5.556-.659-2.138-.99-4.486-.99-7.044 0-2.513.319-4.861.957-7.044.636-2.181 1.616-4.078 2.934-5.687 1.319-1.61 2.979-2.888 4.98-3.836 1.999-.948 4.362-1.423 7.089-1.423 2.33 0 4.375.398 6.134 1.19 1.758.794 3.231 1.886 4.419 3.275 1.186 1.389 2.088 3.042 2.703 4.96.616 1.918.924 4.001.924 6.25 0 .618-.023 1.268-.067 1.951-.036.585-.08 1.169-.131 1.752h-23.017l.001.002h.001zm30.406-18.585c.459-.084.921-.15 1.385-.198a14.17 14.17 0 011.385-.066c.483 0 .966.022 1.451.066.483.044.923.11 1.319.198.131.661.263 1.533.394 2.612.132 1.08.199 1.995.199 2.745.923-1.499 2.143-2.8 3.659-3.903 1.517-1.102 3.463-1.654 5.837-1.654.351 0 .714.012 1.088.034.32.017.64.05.956.099.088.397.155.817.198 1.257.044.44.066.904.066 1.388 0 .53-.033 1.081-.099 1.653-.063.553-.14 1.104-.23 1.654a4.54 4.54 0 00-1.089-.133h-.891c-1.187 0-2.319.166-3.396.496-1.078.331-2.045.916-2.902 1.753-.857.838-1.539 1.985-2.044 3.44-.506 1.455-.758 3.329-.758 5.621v16.866c-.535.093-1.075.16-1.617.198-.592.044-1.131.066-1.615.066a22.133 22.133 0 01-1.616-.066 19.229 19.229 0 01-1.682-.197v-33.93h.002zM107.775 11.08c0 .791-.142 1.576-.421 2.317a6.542 6.542 0 01-2.311.422h-.01a6.535 6.535 0 01-2.311-.421 6.58 6.58 0 01-.422-2.319v-.01c0-.816.149-1.597.42-2.318a6.523 6.523 0 012.312-.422h.009c.814 0 1.593.15 2.312.422.278.74.421 1.526.42 2.318v.01h.002zm8.059-1.836h-6.39l4.518-4.53c-.711-1.002-1.583-1.876-2.581-2.588l-4.519 4.531V.249a10.969 10.969 0 00-1.818-.152h-.012c-.62 0-1.227.053-1.819.152v6.409l-4.52-4.532c-.497.356-.964.752-1.396 1.186l-.002.002c-.432.433-.827.902-1.181 1.4l4.52 4.531h-6.392s-.152 1.204-.152 1.827v.007c0 .623.053 1.232.153 1.826h6.391l-4.52 4.53c.71 1.001 1.583 1.876 2.58 2.589l4.52-4.531v6.409c.591.1 1.197.152 1.816.152h.016a11 11 0 001.816-.152v-6.41l4.519 4.533c.498-.356.966-.752 1.398-1.185h.001c.432-.434.826-.903 1.181-1.402l-4.518-4.532h6.391c.099-.594.151-1.202.151-1.823v-.015c0-.611-.05-1.22-.151-1.822zM0 62.202l17.807-27.78H2.11a16.254 16.254 0 01-.197-2.644c0-.926.067-1.787.198-2.58h25.391l.33.86L9.894 57.904H26.71c.131.882.198 1.785.198 2.71 0 .883-.066 1.72-.198 2.514H.33L0 62.201zm51.375-15.015a60.282 60.282 0 00-2.506-.264 30.727 30.727 0 00-2.571-.132c-2.727 0-4.804.507-6.232 1.521-1.43 1.015-2.143 2.558-2.143 4.63 0 1.323.24 2.359.725 3.108.483.751 1.088 1.323 1.813 1.72.726.397 1.528.64 2.407.728.878.088 1.714.132 2.506.132a30.74 30.74 0 003.132-.166 18.761 18.761 0 002.87-.496v-10.78h-.001zm0-6.414c0-2.603-.66-4.41-1.978-5.425-1.32-1.014-3.232-1.521-5.738-1.521-1.54 0-2.979.122-4.32.364a32.974 32.974 0 00-3.925.958c-.836-1.455-1.252-3.195-1.252-5.225 1.493-.484 3.142-.859 4.945-1.123a35.832 35.832 0 015.21-.398c4.397 0 7.739 1.004 10.025 3.01 2.286 2.008 3.43 5.215 3.43 9.623v21.231c-1.54.353-3.408.716-5.606 1.091a40.053 40.053 0 01-6.727.563c-2.154 0-4.1-.198-5.836-.595-1.738-.398-3.21-1.036-4.42-1.919a8.883 8.883 0 01-2.803-3.372c-.66-1.367-.989-3.02-.989-4.96 0-1.896.385-3.561 1.154-4.995a10.42 10.42 0 013.133-3.571c1.32-.947 2.836-1.653 4.55-2.115a20.648 20.648 0 015.408-.695c1.407 0 2.561.033 3.463.1.9.065 1.66.142 2.275.23v-1.256h.001zM71.423 57.57c.833.309 1.695.53 2.573.662.879.133 2.021.199 3.43.199 1.582 0 3.032-.253 4.351-.76a8.642 8.642 0 003.397-2.349c.945-1.057 1.692-2.39 2.242-4.001.55-1.609.825-3.515.825-5.72 0-3.528-.65-6.328-1.946-8.4-1.298-2.072-3.42-3.109-6.364-3.109-1.099 0-2.155.198-3.165.596a7.813 7.813 0 00-2.705 1.785c-.79.794-1.428 1.798-1.912 3.01-.484 1.214-.725 2.656-.725 4.332v13.756zm-6.529-28.373a13.832 13.832 0 012.77-.264c.439 0 .9.023 1.385.066.483.045.944.111 1.385.198.043.09.099.364.165.827.065.464.131.96.198 1.488.066.53.131 1.038.197 1.521.066.486.1.795.1.927a13.43 13.43 0 011.582-2.05 10.577 10.577 0 012.21-1.785c.857-.53 1.824-.948 2.902-1.258 1.076-.308 2.275-.464 3.594-.464 1.978 0 3.814.332 5.507.993a11.02 11.02 0 014.352 3.075c1.208 1.39 2.153 3.154 2.835 5.291.682 2.14 1.022 4.664 1.022 7.574 0 5.82-1.572 10.373-4.716 13.658s-7.595 4.927-13.354 4.927c-.968 0-1.957-.067-2.968-.199-1.012-.133-1.89-.31-2.638-.529v15.543c-.557.091-1.118.157-1.681.198-.594.044-1.133.066-1.617.066a22.331 22.331 0 01-1.615-.066 15.914 15.914 0 01-1.616-.198V29.197h.001z"/></svg>